<?xml version="1.0" encoding="UTF-8" standalone="no"?>
<svg
   width="266"
   height="73"
   viewBox="0 0 266 73"
   fill="none"
   version="1.1"
   id="svg14"
   sodipodi:docname="logo.svg"
   inkscape:version="1.2.1 (9c6d41e410, 2022-07-14)"
   xmlns:inkscape="http://www.inkscape.org/namespaces/inkscape"
   xmlns:sodipodi="http://sodipodi.sourceforge.net/DTD/sodipodi-0.dtd"
   xmlns="http://www.w3.org/2000/svg"
   xmlns:svg="http://www.w3.org/2000/svg">
  <defs
     id="defs18" />
  <sodipodi:namedview
     id="namedview16"
     pagecolor="#ffffff"
     bordercolor="#000000"
     borderopacity="0.25"
     inkscape:showpageshadow="2"
     inkscape:pageopacity="0.0"
     inkscape:pagecheckerboard="0"
     inkscape:deskcolor="#d1d1d1"
     showgrid="false"
     inkscape:zoom="4.5488722"
     inkscape:cx="134.97851"
     inkscape:cy="39.350413"
     inkscape:window-width="1920"
     inkscape:window-height="1027"
     inkscape:window-x="-8"
     inkscape:window-y="-8"
     inkscape:window-maximized="1"
     inkscape:current-layer="svg14" />
  <path
     d="M36.0678 0C28.9343 -8.50666e-08 21.9609 2.11534 16.0296 6.07852C10.0983 10.0417 5.47539 15.6747 2.7455 22.2652C0.0156126 28.8558 -0.698651 36.1078 0.693031 43.1043C2.08471 50.1007 5.51984 56.5274 10.564 61.5716C15.6082 66.6157 22.0348 70.0509 29.0313 71.4426C36.0278 72.8342 43.2798 72.12 49.8703 69.3901C56.4609 66.6602 62.0939 62.0373 66.0571 56.106C70.0202 50.1747 72.1356 43.2013 72.1356 36.0678L54.1017 36.0678C54.1017 39.6346 53.044 43.1212 51.0624 46.0869C49.0808 49.0526 46.2643 51.364 42.9691 52.7289C39.6738 54.0939 36.0478 54.451 32.5496 53.7552C29.0513 53.0593 25.838 51.3418 23.3159 48.8197C20.7938 46.2976 19.0763 43.0843 18.3804 39.586C17.6846 36.0878 18.0417 32.4618 19.4066 29.1665C20.7716 25.8713 23.083 23.0547 26.0487 21.0732C29.0144 19.0916 32.501 18.0339 36.0678 18.0339L36.0678 0Z"
     fill="white"
     id="path6" />
  <path
     d="M36.0678 0C31.3313 -5.64821e-08 26.6412 0.932921 22.2652 2.7455C17.8893 4.55807 13.9132 7.21481 10.564 10.564C7.21481 13.9132 4.55807 17.8893 2.7455 22.2653C0.93292 26.6412 -7.1519e-07 31.3313 0 36.0678L18.0339 36.0678C18.0339 33.6996 18.5004 31.3545 19.4066 29.1665C20.3129 26.9785 21.6413 24.9905 23.3159 23.3159C24.9905 21.6413 26.9785 20.3129 29.1665 19.4066C31.3545 18.5004 33.6995 18.0339 36.0678 18.0339L36.0678 0Z"
     fill="#5CE1E6"
     id="path8" />
  <circle
     cx="36.0678"
     cy="36.0678"
     r="11.2712"
     fill="#5CE1E6"
     id="circle10" />
  <path
     d="M47.339 36.0678C47.339 34.5877 47.0475 33.122 46.481 31.7545C45.9146 30.387 45.0844 29.1445 44.0377 28.0979C42.9911 27.0513 41.7486 26.221 40.3811 25.6546C39.0136 25.0882 37.548 24.7966 36.0678 24.7966C34.5876 24.7966 33.122 25.0882 31.7545 25.6546C30.387 26.221 29.1445 27.0513 28.0979 28.0979C27.0512 29.1445 26.221 30.387 25.6546 31.7545C25.0882 33.122 24.7966 34.5877 24.7966 36.0678L36.0678 36.0678H47.339Z"
     fill="white"
     id="path12" />
  <text
     xml:space="preserve"
     style="font-size:37.3333px;fill:#5ce1e6;fill-opacity:1"
     x="163.77686"
     y="48.143803"
     id="text178"><tspan
       sodipodi:role="line"
       id="tspan176"
       x="163.77686"
       y="48.143803">form</tspan></text>
  <text
     xml:space="preserve"
     style="font-size:37.3333px;fill:#ffffff;fill-opacity:1"
     x="80.459496"
     y="47.923969"
     id="text232"><tspan
       sodipodi:role="line"
       id="tspan230"
       x="80.459496"
       y="47.923969">manu</tspan></text>
</svg>
